<?xml version="1.0" encoding="utf-8"?>
<!-- Generator: Adobe Illustrator 23.0.0, SVG Export Plug-In . SVG Version: 6.00 Build 0)  -->
<svg version="1.1" id="Capa_1" xmlns="http://www.w3.org/2000/svg" xmlns:xlink="http://www.w3.org/1999/xlink" x="0px" y="0px"
	 viewBox="0 0 209 209" style="enable-background:new 0 0 209 209;" xml:space="preserve">
<style type="text/css">
	.st0{fill:#FFFFFF;}
</style>
<path class="st0" d="M85.5,0C38.3,0,0,38.3,0,85.5C0,132.7,38.3,171,85.5,171S171,132.7,171,85.5C171,38.3,132.7,0,85.5,0z
	 M84.9,155.5c-38.7-0.3-69.7-32-69.4-70.6s32-69.7,70.6-69.4c38.7,0.3,69.7,32,69.4,70.6S123.5,155.8,84.9,155.5z"/>
<path class="st0" d="M206.7,206.6L206.7,206.6c-3,3-7.9,3-10.9,0l-57-57c-3-3-3-7.9,0-10.9l0,0c3-3,7.9-3,10.9,0l57,57
	C209.8,198.7,209.8,203.6,206.7,206.6z"/>
</svg>
